<svg width="70" height="46" viewBox="0 0 70 46" fill="none" xmlns="http://www.w3.org/2000/svg">
<path d="M11.279 30.23C10.2977 30.23 9.43133 29.9923 8.68 29.517C7.92867 29.0417 7.33833 28.3363 6.909 27.401C6.47967 26.4503 6.265 25.2773 6.265 23.882C6.265 21.7967 6.71733 20.202 7.622 19.098C8.542 17.994 9.79167 17.442 11.371 17.442C11.9537 17.442 12.4827 17.5263 12.958 17.695C13.4333 17.8483 13.855 18.0707 14.223 18.362C14.6063 18.638 14.9283 18.9677 15.189 19.351H15.281L15.58 17.672H17.19V27.286C17.19 27.7613 17.282 28.0987 17.466 28.298C17.65 28.482 17.8723 28.574 18.133 28.574C18.2557 28.574 18.386 28.5587 18.524 28.528C18.662 28.4973 18.7617 28.4743 18.823 28.459V29.931C18.7463 29.977 18.639 30.023 18.501 30.069C18.363 30.115 18.2097 30.1533 18.041 30.184C17.8723 30.2147 17.7037 30.23 17.535 30.23C16.9677 30.23 16.4923 30.092 16.109 29.816C15.741 29.54 15.4727 29.0493 15.304 28.344H15.143C14.8977 28.712 14.591 29.0417 14.223 29.333C13.855 29.609 13.4257 29.8313 12.935 30C12.4443 30.1533 11.8923 30.23 11.279 30.23ZM11.693 28.551C12.5363 28.551 13.211 28.39 13.717 28.068C14.2383 27.746 14.614 27.2477 14.844 26.573C15.074 25.8983 15.189 25.0397 15.189 23.997V23.859C15.189 22.3257 14.9283 21.1527 14.407 20.34C13.901 19.5273 12.9887 19.121 11.67 19.121C10.5507 19.121 9.715 19.535 9.163 20.363C8.62633 21.1757 8.358 22.3563 8.358 23.905C8.358 25.4383 8.64167 26.596 9.209 27.378C9.77633 28.16 10.6043 28.551 11.693 28.551ZM24.2939 8.99902C24.2939 9.08138 24.2939 9.27604 24.2939 9.58301C24.2939 9.88997 24.2939 10.2568 24.2939 10.6836C24.3014 11.1104 24.3052 11.5671 24.3052 12.0537C24.3127 12.5404 24.3239 13.0083 24.3389 13.4575C24.3538 14.0864 24.38 14.8127 24.4175 15.6362C24.4549 16.4598 24.4924 17.3171 24.5298 18.208C24.5747 19.0915 24.6196 19.9824 24.6646 20.8809C24.717 21.7793 24.7656 22.6216 24.8105 23.4077C24.863 24.1864 24.9079 24.8789 24.9453 25.4854C24.9827 26.0918 25.0127 26.5522 25.0352 26.8667C25.0651 27.3084 25.125 27.6566 25.2148 27.9111C25.3047 28.1657 25.4282 28.3678 25.5854 28.5176C25.7502 28.6673 25.9523 28.7834 26.1919 28.8657C26.439 28.9481 26.7347 29.0342 27.0791 29.124C27.2064 29.1615 27.2887 29.2026 27.3262 29.2476C27.3636 29.2925 27.3823 29.3449 27.3823 29.4048C27.3823 29.4722 27.3561 29.5321 27.3037 29.5845C27.2513 29.6294 27.154 29.6519 27.0117 29.6519C26.9443 29.6519 26.8058 29.6444 26.5962 29.6294C26.394 29.6144 26.1545 29.5957 25.8774 29.5732C25.6004 29.5508 25.2972 29.5321 24.9678 29.5171C24.6458 29.5021 24.3314 29.4946 24.0244 29.4946C23.7773 29.4946 23.5153 29.5059 23.2383 29.5283C22.9613 29.5508 22.6917 29.5732 22.4297 29.5957C22.1676 29.6182 21.9206 29.6406 21.6885 29.6631C21.4639 29.6855 21.2767 29.6968 21.127 29.6968C21.0221 29.6968 20.9173 29.6781 20.8125 29.6406C20.7152 29.6032 20.6665 29.5171 20.6665 29.3823C20.6665 29.1802 20.8125 29.0791 21.1045 29.0791C21.2992 29.0791 21.5163 29.0679 21.7559 29.0454C22.0029 29.0229 22.2051 28.9818 22.3623 28.9219C22.4896 28.877 22.5907 28.8133 22.6655 28.731C22.7404 28.6486 22.7965 28.5588 22.834 28.4614C22.8789 28.3566 22.9089 28.2518 22.9238 28.147C22.9388 28.0347 22.9463 27.9224 22.9463 27.8101C22.9463 27.6753 22.9351 27.4619 22.9126 27.1699C22.8976 26.8704 22.8752 26.5223 22.8452 26.1255C22.8153 25.7287 22.7778 25.2907 22.7329 24.8115C22.6955 24.3324 22.6543 23.842 22.6094 23.3403C22.5645 22.8312 22.5195 22.3258 22.4746 21.8242C22.4297 21.3226 22.3848 20.8472 22.3398 20.3979C22.2949 19.9487 22.2537 19.5407 22.2163 19.1738C22.1864 18.807 22.1602 18.5075 22.1377 18.2754C22.1003 17.931 22.0628 17.5754 22.0254 17.2085C21.988 16.8341 21.9505 16.4673 21.9131 16.1079C21.8757 15.7485 21.8345 15.4041 21.7896 15.0747C21.7446 14.7453 21.6997 14.4458 21.6548 14.1763C21.6099 13.9142 21.5312 13.7121 21.4189 13.5698C21.3141 13.4201 21.1532 13.3452 20.936 13.3452C20.7638 13.3452 20.5617 13.3864 20.3296 13.4688C20.105 13.5511 19.8766 13.641 19.6445 13.7383C19.4124 13.8356 19.1953 13.9255 18.9932 14.0078C18.7835 14.0902 18.6188 14.1313 18.499 14.1313C18.4167 14.1313 18.3455 14.1126 18.2856 14.0752C18.2183 14.0303 18.1846 13.9554 18.1846 13.8506C18.1846 13.7083 18.2594 13.5885 18.4092 13.4912C18.4766 13.4388 18.5664 13.3864 18.6787 13.334C18.791 13.2816 18.9408 13.2104 19.1279 13.1206C19.3076 13.0233 19.5322 12.896 19.8018 12.7388C20.0713 12.5815 20.397 12.3719 20.7788 12.1099C21.1831 11.8328 21.55 11.5409 21.8794 11.2339C22.2088 10.9269 22.5008 10.6312 22.7554 10.3467C23.0174 10.0547 23.2345 9.7889 23.4067 9.54932C23.5864 9.30973 23.7212 9.11882 23.811 8.97656C23.8934 8.86426 23.957 8.77441 24.002 8.70703C24.0469 8.63965 24.0993 8.60596 24.1592 8.60596C24.2191 8.60596 24.2565 8.65088 24.2715 8.74072C24.2865 8.82308 24.2939 8.90918 24.2939 8.99902ZM30.4707 18.2754C30.4707 18.3802 30.467 18.5487 30.4595 18.7808C30.452 19.0129 30.4482 19.2861 30.4482 19.6006C30.4482 19.7803 30.4482 19.9225 30.4482 20.0273C30.4557 20.1322 30.4595 20.2332 30.4595 20.3306C30.4595 20.4279 30.4595 20.5402 30.4595 20.6675C30.467 20.7948 30.4707 20.9707 30.4707 21.1953C30.7103 20.8659 30.9873 20.5701 31.3018 20.3081C31.4365 20.1958 31.5863 20.0872 31.751 19.9824C31.9157 19.8776 32.0954 19.784 32.29 19.7017C32.4922 19.6193 32.7018 19.5519 32.9189 19.4995C33.1436 19.4471 33.3794 19.4209 33.6265 19.4209C34.1655 19.4209 34.6447 19.5182 35.064 19.7129C35.4832 19.9076 35.8351 20.1808 36.1196 20.5327C36.4116 20.8771 36.6325 21.2926 36.7822 21.7793C36.932 22.2585 37.0068 22.79 37.0068 23.374C37.0068 24.25 36.8908 25.0361 36.6587 25.7324C36.4266 26.4287 36.1121 27.0239 35.7153 27.5181C35.3185 28.0047 34.8543 28.3791 34.3228 28.6411C33.7912 28.9032 33.2222 29.0342 32.6157 29.0342C32.3986 29.0342 32.1927 29.0155 31.998 28.978C31.8109 28.9406 31.6349 28.8919 31.4702 28.832C31.3055 28.7721 31.152 28.7085 31.0098 28.6411C30.875 28.5662 30.7552 28.4989 30.6504 28.439C30.6429 28.7459 30.6354 29.0192 30.6279 29.2588C30.6279 29.4909 30.6279 29.7192 30.6279 29.9438C30.6279 30.1685 30.6279 30.4006 30.6279 30.6401C30.6279 30.8797 30.6279 31.1567 30.6279 31.4712C30.6279 31.9803 30.6317 32.5418 30.6392 33.1558C30.6541 33.7697 30.6803 34.3687 30.7178 34.9526C30.7627 35.5441 30.8226 36.0832 30.8975 36.5698C30.9723 37.0565 31.0771 37.4196 31.2119 37.6592C31.3392 37.8913 31.4964 38.0747 31.6836 38.2095C31.8708 38.3442 32.0579 38.4528 32.2451 38.5352C32.4772 38.64 32.6794 38.7448 32.8516 38.8496C33.0312 38.9544 33.1211 39.063 33.1211 39.1753C33.1211 39.2576 33.0949 39.325 33.0425 39.3774C32.9901 39.4299 32.9002 39.4561 32.7729 39.4561C32.5708 39.4561 32.2863 39.4224 31.9194 39.355C31.5601 39.2951 31.167 39.2277 30.7402 39.1528C30.321 39.078 29.9017 39.0068 29.4824 38.9395C29.0632 38.8796 28.6963 38.8496 28.3818 38.8496C28.0449 38.8496 27.7642 38.8608 27.5396 38.8833C27.3149 38.9132 27.0791 38.9282 26.832 38.9282C26.5026 38.9282 26.278 38.9058 26.1582 38.8608C26.0459 38.8234 25.9897 38.7747 25.9897 38.7148C25.9897 38.6475 26.0272 38.6025 26.1021 38.5801C26.1769 38.5576 26.278 38.5352 26.4053 38.5127C26.5326 38.4902 26.6748 38.4528 26.832 38.4004C26.9893 38.3555 27.154 38.2769 27.3262 38.1646C27.5059 38.0373 27.6481 37.8763 27.7529 37.6816C27.8652 37.4945 27.9513 37.2848 28.0112 37.0527C28.0711 36.8206 28.1123 36.5773 28.1348 36.3228C28.1572 36.0757 28.1759 35.8324 28.1909 35.5928C28.2059 35.4056 28.2209 35.1174 28.2358 34.728C28.2508 34.3462 28.2658 33.897 28.2808 33.3804C28.2957 32.8713 28.3107 32.3135 28.3257 31.707C28.3481 31.1006 28.3669 30.4754 28.3818 29.8315C28.3968 29.1877 28.4118 28.5475 28.4268 27.9111C28.4417 27.2673 28.453 26.6571 28.4604 26.0806C28.4679 25.5041 28.4754 24.9762 28.4829 24.4971C28.4904 24.0104 28.4941 23.6061 28.4941 23.2842C28.4941 22.805 28.4792 22.4119 28.4492 22.105C28.4268 21.7905 28.3856 21.5435 28.3257 21.3638C28.2658 21.1766 28.1872 21.0493 28.0898 20.9819C27.9925 20.9071 27.8727 20.8696 27.7305 20.8696C27.6182 20.8696 27.4984 20.8921 27.3711 20.937C27.2513 20.9819 27.1278 21.0306 27.0005 21.083C26.8807 21.1279 26.7684 21.1729 26.6636 21.2178C26.5588 21.2627 26.4727 21.2852 26.4053 21.2852C26.278 21.2852 26.2144 21.2215 26.2144 21.0942C26.2144 21.0493 26.2368 20.9969 26.2817 20.937C26.3267 20.8771 26.4427 20.8022 26.6299 20.7124C26.7497 20.645 26.8919 20.5776 27.0566 20.5103C27.2214 20.4354 27.3973 20.353 27.5845 20.2632C27.7791 20.1659 27.9775 20.0535 28.1797 19.9263C28.3893 19.7915 28.5952 19.6305 28.7974 19.4434C29.0669 19.1963 29.284 18.9754 29.4487 18.7808C29.6209 18.5861 29.7594 18.4251 29.8643 18.2979C29.9766 18.1631 30.0627 18.062 30.1226 17.9946C30.1899 17.9198 30.2536 17.8823 30.3135 17.8823C30.3809 17.8823 30.422 17.9235 30.437 18.0059C30.4595 18.0807 30.4707 18.1706 30.4707 18.2754ZM32.5371 20.5215C32.2152 20.5215 31.9344 20.5964 31.6948 20.7461C31.4627 20.8958 31.2643 21.0942 31.0996 21.3413C30.9349 21.5884 30.8001 21.8691 30.6953 22.1836C30.598 22.498 30.5194 22.8237 30.4595 23.1606C30.3996 23.4901 30.3584 23.8158 30.3359 24.1377C30.321 24.4521 30.3135 24.7367 30.3135 24.9912C30.3135 25.388 30.3397 25.7886 30.3921 26.1929C30.452 26.5897 30.5531 26.9491 30.6953 27.271C30.8451 27.5854 31.0472 27.8438 31.3018 28.0459C31.5563 28.248 31.8783 28.3491 32.2676 28.3491C32.5745 28.3491 32.8665 28.2705 33.1436 28.1133C33.4281 27.9561 33.6751 27.7052 33.8848 27.3608C34.1019 27.009 34.2741 26.5522 34.4014 25.9907C34.5286 25.4217 34.5923 24.7329 34.5923 23.9243C34.5923 23.4302 34.5549 22.9772 34.48 22.5654C34.4051 22.1462 34.2853 21.7868 34.1206 21.4873C33.9559 21.1803 33.7425 20.9445 33.4805 20.7798C33.2184 20.6076 32.904 20.5215 32.5371 20.5215ZM42.521 5.39404C42.6258 5.39404 42.6932 5.42399 42.7231 5.48389C42.7531 5.54378 42.7681 5.60368 42.7681 5.66357C42.7681 5.76839 42.7531 5.91064 42.7231 6.09033C42.6932 6.26253 42.6558 6.49463 42.6108 6.78662C42.5659 7.07861 42.5135 7.44173 42.4536 7.87598C42.4012 8.30273 42.3451 8.82308 42.2852 9.43701C42.2028 10.298 42.1279 11.1665 42.0605 12.0425C42.0007 12.9185 41.9445 13.772 41.8921 14.603C41.8472 15.4341 41.806 16.2314 41.7686 16.9951C41.7311 17.7513 41.6974 18.4476 41.6675 19.084C41.645 19.7204 41.6263 20.2819 41.6113 20.7686C41.5964 21.2552 41.5851 21.6408 41.5776 21.9253C41.6974 21.5734 41.8584 21.2215 42.0605 20.8696C42.2702 20.5177 42.521 20.1995 42.813 19.915C43.105 19.6305 43.4419 19.4022 43.8237 19.23C44.2056 19.0503 44.6286 18.9604 45.0928 18.9604C45.3698 18.9604 45.6618 18.9979 45.9688 19.0728C46.2757 19.1401 46.5715 19.2674 46.856 19.4546C47.1479 19.6418 47.41 19.8963 47.6421 20.2183C47.8817 20.5327 48.0688 20.9408 48.2036 21.4424C48.3234 21.929 48.3983 22.4082 48.4282 22.8799C48.4582 23.3441 48.4731 23.8457 48.4731 24.3848C48.4731 24.7891 48.4657 25.2383 48.4507 25.7324C48.4357 26.2266 48.4282 26.7282 48.4282 27.2373C48.4282 27.5742 48.4582 27.84 48.5181 28.0347C48.5854 28.2218 48.6753 28.3641 48.7876 28.4614C48.9074 28.5588 49.0459 28.6224 49.2031 28.6523C49.3678 28.6823 49.5475 28.701 49.7422 28.7085C49.8171 28.716 49.8919 28.7235 49.9668 28.731C50.0492 28.7384 50.1203 28.7534 50.1802 28.7759C50.2476 28.7983 50.3 28.832 50.3374 28.877C50.3823 28.9219 50.4048 28.9818 50.4048 29.0566C50.4048 29.139 50.3636 29.2139 50.2812 29.2812C50.1989 29.3486 50.0492 29.3823 49.832 29.3823C49.5326 29.3823 49.2031 29.3486 48.8438 29.2812C48.4919 29.2064 48.0913 29.1689 47.6421 29.1689C47.3576 29.1689 47.0581 29.1989 46.7437 29.2588C46.4367 29.3187 46.1372 29.3861 45.8452 29.4609C45.5607 29.5283 45.2987 29.592 45.0591 29.6519C44.8195 29.7118 44.6323 29.7417 44.4976 29.7417C44.3778 29.7417 44.3029 29.723 44.2729 29.6855C44.2505 29.6406 44.2393 29.5994 44.2393 29.562C44.2393 29.5021 44.2617 29.4572 44.3066 29.4272C44.3516 29.3898 44.4377 29.3524 44.5649 29.3149C44.7147 29.2625 44.8457 29.2139 44.958 29.1689C45.0778 29.124 45.1864 29.0716 45.2837 29.0117C45.396 28.9443 45.5008 28.8358 45.5981 28.686C45.703 28.5288 45.7816 28.278 45.834 27.9336C45.8564 27.7464 45.8752 27.5293 45.8901 27.2822C45.9051 27.0277 45.9163 26.7619 45.9238 26.4849C45.9388 26.2004 45.95 25.9084 45.9575 25.6089C45.965 25.3094 45.9688 25.0099 45.9688 24.7104C45.9688 24.2163 45.9613 23.7521 45.9463 23.3179C45.9313 22.8761 45.9014 22.513 45.8564 22.2285C45.7591 21.5996 45.5794 21.1017 45.3174 20.7349C45.0553 20.368 44.681 20.1846 44.1943 20.1846C43.9622 20.1846 43.7526 20.2295 43.5654 20.3193C43.3857 20.4092 43.2248 20.5252 43.0825 20.6675C42.9403 20.8097 42.813 20.9707 42.7007 21.1504C42.5884 21.3301 42.491 21.5135 42.4087 21.7007C42.259 22.0226 42.1167 22.4344 41.9819 22.936C41.8472 23.4377 41.7311 23.9805 41.6338 24.5645C41.5365 25.141 41.4578 25.7324 41.3979 26.3389C41.3455 26.9378 41.3193 27.4993 41.3193 28.0234C41.3193 28.2705 41.3493 28.4727 41.4092 28.6299C41.4691 28.7796 41.5552 28.9032 41.6675 29.0005C41.7873 29.0903 41.9258 29.1615 42.083 29.2139C42.2477 29.2663 42.4312 29.3149 42.6333 29.3599C42.7381 29.3823 42.8205 29.4123 42.8804 29.4497C42.9478 29.4797 42.9814 29.5396 42.9814 29.6294C42.9814 29.8016 42.8504 29.8877 42.5884 29.8877C42.3862 29.8877 42.1392 29.8652 41.8472 29.8203C41.5627 29.7679 41.2557 29.7118 40.9263 29.6519C40.6043 29.5845 40.2712 29.5283 39.9268 29.4834C39.5898 29.431 39.2642 29.4048 38.9497 29.4048C38.5379 29.4048 38.1711 29.4235 37.8491 29.4609C37.5272 29.4984 37.2502 29.5171 37.0181 29.5171C36.6961 29.5171 36.5352 29.416 36.5352 29.2139C36.5352 29.1315 36.5688 29.0679 36.6362 29.0229C36.6961 28.9705 36.7785 28.9443 36.8833 28.9443C36.9507 28.9443 37.0293 28.9481 37.1191 28.9556C37.209 28.9631 37.2988 28.9668 37.3887 28.9668C37.6582 28.9668 37.8903 28.9368 38.085 28.877C38.2796 28.8096 38.4443 28.6973 38.5791 28.54C38.7214 28.3828 38.8411 28.1732 38.9385 27.9111C39.0358 27.6416 39.1182 27.3047 39.1855 26.9004C39.2305 26.6383 39.2791 26.2378 39.3315 25.6987C39.3914 25.1597 39.4551 24.5345 39.5225 23.8232C39.5898 23.1045 39.6572 22.3258 39.7246 21.4873C39.792 20.6413 39.8556 19.784 39.9155 18.9155C39.9829 18.0396 40.0465 17.1785 40.1064 16.3325C40.1663 15.479 40.215 14.6854 40.2524 13.9517C40.2974 13.2179 40.3311 12.5703 40.3535 12.0088C40.3835 11.4398 40.3984 11.0055 40.3984 10.7061C40.3984 10.2643 40.3573 9.91618 40.2749 9.66162C40.2 9.39958 40.1027 9.20117 39.9829 9.06641C39.8631 8.93164 39.7284 8.84554 39.5786 8.80811C39.4364 8.77067 39.2979 8.75195 39.1631 8.75195C39.0283 8.75195 38.8823 8.76693 38.7251 8.79688C38.5679 8.81934 38.4069 8.84554 38.2422 8.87549C38.085 8.90544 37.9277 8.93538 37.7705 8.96533C37.6208 8.98779 37.4785 8.99902 37.3438 8.99902C37.224 8.99902 37.1416 8.97656 37.0967 8.93164C37.0443 8.87923 37.0181 8.81185 37.0181 8.72949C37.0181 8.63216 37.048 8.55729 37.1079 8.50488C37.1678 8.45247 37.2614 8.40381 37.3887 8.35889C37.5684 8.29899 37.763 8.2391 37.9727 8.1792C38.1823 8.1193 38.4069 8.04818 38.6465 7.96582C38.8936 7.87598 39.1556 7.77116 39.4326 7.65137C39.7096 7.52409 40.0091 7.36686 40.3311 7.17969C40.6979 6.97005 40.9974 6.76042 41.2295 6.55078C41.4616 6.33366 41.6562 6.14274 41.8135 5.97803C41.9707 5.80583 42.098 5.66732 42.1953 5.5625C42.3001 5.4502 42.4087 5.39404 42.521 5.39404ZM53.8862 21.9028C53.6092 21.9028 53.3472 21.8504 53.1001 21.7456C52.8605 21.6408 52.6509 21.4836 52.4712 21.2739C52.2915 21.0643 52.1493 20.8022 52.0444 20.4878C51.9396 20.1733 51.8872 19.8027 51.8872 19.376C51.8872 18.9118 51.9508 18.4588 52.0781 18.0171C52.2129 17.5679 52.4188 17.1711 52.6958 16.8267C52.9728 16.4748 53.3247 16.194 53.7515 15.9844C54.1857 15.7747 54.7061 15.6699 55.3125 15.6699C55.8141 15.6699 56.2559 15.7373 56.6377 15.8721C57.027 15.9993 57.3677 16.1753 57.6597 16.3999C57.9517 16.617 58.1987 16.8716 58.4009 17.1636C58.6105 17.4556 58.7865 17.7625 58.9287 18.0845C59.071 18.3989 59.187 18.7209 59.2769 19.0503C59.3742 19.3722 59.4565 19.6792 59.5239 19.9712C59.5614 20.1359 59.6063 20.3717 59.6587 20.6787C59.7186 20.9782 59.7822 21.3263 59.8496 21.7231C59.917 22.12 59.9881 22.5467 60.063 23.0034C60.1379 23.4526 60.2127 23.9093 60.2876 24.3735C60.3625 24.8377 60.4336 25.2907 60.501 25.7324C60.5758 26.1667 60.6432 26.5672 60.7031 26.9341C60.763 27.2935 60.8117 27.6042 60.8491 27.8662C60.894 28.1208 60.9277 28.2967 60.9502 28.394C60.9951 28.6261 61.0438 28.862 61.0962 29.1016C61.1561 29.3411 61.2272 29.562 61.3096 29.7642C61.3994 29.9588 61.508 30.1198 61.6353 30.2471C61.7625 30.3743 61.9235 30.438 62.1182 30.438C62.2305 30.438 62.3278 30.4118 62.4102 30.3594C62.4925 30.307 62.5562 30.2358 62.6011 30.146C62.6535 30.0562 62.6909 29.9551 62.7134 29.8428C62.7358 29.7305 62.7471 29.6144 62.7471 29.4946C62.7471 29.3524 62.7433 29.2101 62.7358 29.0679C62.7284 28.9181 62.7246 28.7909 62.7246 28.686C62.7246 28.5737 62.7396 28.4764 62.7695 28.394C62.7995 28.3117 62.8594 28.2705 62.9492 28.2705C63.0316 28.2705 63.0952 28.3192 63.1401 28.4165C63.1925 28.5063 63.23 28.6149 63.2524 28.7422C63.2824 28.862 63.3011 28.9855 63.3086 29.1128C63.3161 29.2326 63.3198 29.3224 63.3198 29.3823C63.3198 29.6444 63.2974 29.9401 63.2524 30.2695C63.2075 30.599 63.1139 30.9172 62.9717 31.2241C62.8369 31.5386 62.6123 31.7969 62.2979 31.999C61.9834 32.2012 61.6203 32.3022 61.2085 32.3022C60.8491 32.3022 60.5384 32.2498 60.2764 32.145C60.0218 32.0402 59.8009 31.9092 59.6138 31.752C59.4341 31.5947 59.2806 31.4263 59.1533 31.2466C59.0335 31.0669 58.9362 30.8984 58.8613 30.7412C58.6517 30.3369 58.4907 29.8952 58.3784 29.416C58.2736 28.9294 58.1875 28.4652 58.1201 28.0234C58.0078 28.2106 57.8356 28.4427 57.6035 28.7197C57.3789 28.9967 57.0981 29.2625 56.7612 29.5171C56.4243 29.7716 56.035 29.9888 55.5933 30.1685C55.1515 30.3481 54.6611 30.438 54.1221 30.438C53.5231 30.438 53.0103 30.3519 52.5835 30.1797C52.1642 30.015 51.8198 29.7904 51.5503 29.5059C51.2808 29.2139 51.0824 28.877 50.9551 28.4951C50.8278 28.1058 50.7642 27.694 50.7642 27.2598C50.7642 26.7956 50.8503 26.3276 51.0225 25.856C51.1947 25.3843 51.4754 24.9575 51.8647 24.5757C52.2616 24.1938 52.7744 23.8831 53.4033 23.6436C54.0397 23.404 54.8146 23.2842 55.728 23.2842C55.9377 23.2842 56.1398 23.2954 56.3345 23.3179C56.5366 23.3328 56.7163 23.3516 56.8735 23.374C57.0382 23.3965 57.1768 23.4189 57.2891 23.4414C57.4089 23.4639 57.495 23.4788 57.5474 23.4863C57.5024 22.8424 57.4463 22.1986 57.3789 21.5547C57.349 21.2852 57.3153 21.0007 57.2778 20.7012C57.2479 20.4017 57.2142 20.1022 57.1768 19.8027C57.1393 19.4958 57.0981 19.1963 57.0532 18.9043C57.0083 18.6123 56.9596 18.339 56.9072 18.0845C56.7874 17.508 56.5516 17.0513 56.1997 16.7144C55.8553 16.37 55.4136 16.1978 54.8745 16.1978C54.5825 16.1978 54.3242 16.2502 54.0996 16.355C53.8825 16.4598 53.6953 16.5946 53.5381 16.7593C53.3883 16.924 53.276 17.1112 53.2012 17.3208C53.1263 17.5229 53.0889 17.7251 53.0889 17.9272C53.0889 18.1444 53.1413 18.3278 53.2461 18.4775C53.3509 18.6198 53.4782 18.7471 53.6279 18.8594C53.7852 18.9717 53.9536 19.0802 54.1333 19.1851C54.313 19.2824 54.4777 19.3984 54.6274 19.5332C54.7847 19.6605 54.9157 19.8177 55.0205 20.0049C55.1253 20.1846 55.1777 20.4129 55.1777 20.6899C55.1777 21.0568 55.0505 21.3525 54.7959 21.5771C54.5488 21.7943 54.2456 21.9028 53.8862 21.9028ZM57.6372 24.1826C57.5848 24.1602 57.4912 24.134 57.3564 24.104C57.2292 24.0666 57.0757 24.0329 56.896 24.0029C56.7163 23.9655 56.5216 23.9355 56.312 23.9131C56.1099 23.8906 55.9077 23.8794 55.7056 23.8794C55.3088 23.8794 54.9382 23.9355 54.5938 24.0479C54.2568 24.1602 53.9648 24.3286 53.7178 24.5532C53.4707 24.7703 53.276 25.0474 53.1338 25.3843C52.9915 25.7137 52.9204 26.0955 52.9204 26.5298C52.9204 26.9266 52.984 27.256 53.1113 27.5181C53.2461 27.7726 53.4146 27.9748 53.6167 28.1245C53.8263 28.2743 54.0547 28.3791 54.3018 28.439C54.5563 28.4989 54.8034 28.5288 55.043 28.5288C55.4248 28.5288 55.7879 28.4689 56.1323 28.3491C56.4767 28.2293 56.7799 28.0908 57.042 27.9336C57.304 27.7764 57.5174 27.6229 57.6821 27.4731C57.8468 27.3234 57.9479 27.2223 57.9854 27.1699C57.9329 26.6683 57.8843 26.2116 57.8394 25.7998C57.8169 25.6201 57.7944 25.4442 57.772 25.272C57.757 25.0998 57.7383 24.9388 57.7158 24.7891C57.7008 24.6393 57.6859 24.512 57.6709 24.4072C57.6559 24.3024 57.6447 24.2275 57.6372 24.1826Z" fill="#6162FF"/>
</svg>
